<mxfile host="app.diagrams.net" modified="2024-04-05T04:10:17.053Z" agent="Mozilla/5.0 (Windows NT 10.0; Win64; x64) AppleWebKit/537.36 (KHTML, like Gecko) Chrome/124.0.0.0 Safari/537.36 Edg/124.0.0.0" etag="cfZeBkG3tgxC0tw-w085" version="24.2.2" type="github">
  <diagram name="Page-1" id="l3t2fn-u9DroyCE5I2ft">
    <mxGraphModel dx="499" dy="668" grid="1" gridSize="10" guides="1" tooltips="1" connect="1" arrows="1" fold="1" page="1" pageScale="1" pageWidth="850" pageHeight="1100" math="0" shadow="0">
      <root>
        <mxCell id="0" />
        <mxCell id="1" parent="0" />
        <mxCell id="wI02eLFvNeEoI9WtyH4o-16" value="Post&amp;nbsp;" style="swimlane;childLayout=stackLayout;horizontal=1;startSize=50;horizontalStack=0;rounded=1;fontSize=14;fontStyle=0;strokeWidth=2;resizeParent=0;resizeLast=1;shadow=0;dashed=0;align=center;arcSize=4;whiteSpace=wrap;html=1;" vertex="1" parent="1">
          <mxGeometry x="340" y="281" width="160" height="159" as="geometry" />
        </mxCell>
        <mxCell id="wI02eLFvNeEoI9WtyH4o-17" value="+user_id&lt;br&gt;+name&lt;br&gt;+username&lt;div&gt;+email&amp;nbsp;&lt;/div&gt;&lt;div&gt;+Password&amp;nbsp;&lt;/div&gt;&lt;div&gt;+Created_at&lt;/div&gt;" style="align=left;strokeColor=none;fillColor=none;spacingLeft=4;fontSize=12;verticalAlign=top;resizable=0;rotatable=0;part=1;html=1;" vertex="1" parent="wI02eLFvNeEoI9WtyH4o-16">
          <mxGeometry y="50" width="160" height="109" as="geometry" />
        </mxCell>
        <mxCell id="wI02eLFvNeEoI9WtyH4o-19" value="Comment" style="swimlane;childLayout=stackLayout;horizontal=1;startSize=50;horizontalStack=0;rounded=1;fontSize=14;fontStyle=0;strokeWidth=2;resizeParent=0;resizeLast=1;shadow=0;dashed=0;align=center;arcSize=4;whiteSpace=wrap;html=1;" vertex="1" parent="1">
          <mxGeometry x="580" y="280" width="200" height="169" as="geometry" />
        </mxCell>
        <mxCell id="wI02eLFvNeEoI9WtyH4o-20" value="+Attribute1&#xa;+Attribute2&#xa;+Attribute3" style="align=left;strokeColor=none;fillColor=none;spacingLeft=4;fontSize=12;verticalAlign=top;resizable=0;rotatable=0;part=1;html=1;" vertex="1" parent="wI02eLFvNeEoI9WtyH4o-19">
          <mxGeometry y="50" width="200" height="119" as="geometry" />
        </mxCell>
      </root>
    </mxGraphModel>
  </diagram>
</mxfile>
